<?xml version="1.0" encoding="utf-8"?>
<!-- Generator: Adobe Illustrator 27.5.0, SVG Export Plug-In . SVG Version: 6.00 Build 0)  -->
<svg version="1.1" xmlns="http://www.w3.org/2000/svg" xmlns:xlink="http://www.w3.org/1999/xlink" x="0px" y="0px"
	 viewBox="0 0 800 800" style="enable-background:new 0 0 800 800;" xml:space="preserve">
<style type="text/css">
	.st0{opacity:0.8;fill:url(#SVGID_1_);}
	.st1{fill:url(#SVGID_00000018933065050004805020000008028606798257068223_);}
	.st2{fill:#FFFFFF;}
	.st3{fill:none;}
	.st4{fill:#202020;}
</style>
<g id="Background">
</g>
<g id="Elements">
	
		<radialGradient id="SVGID_1_" cx="452.5761" cy="688.1935" r="207.5013" gradientTransform="matrix(0.8431 0 0 9.066142e-02 87.7127 595.7682)" gradientUnits="userSpaceOnUse">
		<stop  offset="0" style="stop-color:#797979"/>
		<stop  offset="0.2984" style="stop-color:#B6B6B6"/>
		<stop  offset="0.5793" style="stop-color:#BABABA;stop-opacity:0.5"/>
		<stop  offset="0.9843" style="stop-color:#F2F2F2;stop-opacity:0"/>
	</radialGradient>
	<path class="st0" d="M651.9,658.2c0,14.1-81,25.6-180.8,25.6c-99.9,0-180.8-11.4-180.8-25.6c0-14.1,81-25.6,180.8-25.6
		C571,632.6,651.9,644,651.9,658.2z"/>
	
		<linearGradient id="SVGID_00000027590554395666743860000006082931904261227652_" gradientUnits="userSpaceOnUse" x1="62.7659" y1="418.5015" x2="471.1271" y2="418.5015">
		<stop  offset="0" style="stop-color:#F37E5F"/>
		<stop  offset="0.9721" style="stop-color:#D43232"/>
	</linearGradient>
	<path style="fill:url(#SVGID_00000027590554395666743860000006082931904261227652_);" d="M393.6,251.7
		c85.7,112.9,77.3,406.5,77.3,406.5s-285-71-370.7-183.9c-61.5-81-45.7-196.5,35.3-258S332.1,170.7,393.6,251.7z"/>
	<g>
	</g>
	<path id="XMLID_72_" class="st2" d="M401.6,366.2c0,51.9-25.6,97.8-64.9,125.7c-4.3,3.1-8.7,5.9-13.3,8.5
		c-22.4,12.7-48.3,20-75.9,20c-1.5,0-3.1,0-4.6-0.1c-1.4,0-2.9-0.1-4.3-0.2c-0.2,0-0.4,0-0.5,0c-1.4-0.1-2.7-0.2-4-0.3
		c-0.1,0-0.2,0-0.3,0c-0.2,0-0.3,0-0.5,0c-1.2-0.1-2.5-0.2-3.7-0.4h0c-0.1,0-0.3,0-0.4-0.1c-1.2-0.1-2.4-0.3-3.5-0.5l-0.3-0.1
		c-0.5-0.1-0.9-0.1-1.4-0.2c-1.1-0.2-2.2-0.3-3.3-0.5c-1.2-0.2-2.5-0.5-3.7-0.7c-0.4-0.1-0.7-0.1-1.1-0.2c-1.3-0.3-2.6-0.5-3.8-0.8
		c-1.3-0.3-2.6-0.6-3.9-1c-0.2,0-0.4-0.1-0.5-0.1c-1.4-0.4-2.7-0.7-4-1.1c-1-0.3-2-0.6-2.9-0.9c-0.1,0-0.2-0.1-0.3-0.1
		c-0.7-0.2-1.5-0.5-2.2-0.7c-0.1,0-0.1,0-0.2-0.1c-0.9-0.3-1.8-0.6-2.6-0.9c-0.1,0-0.1,0-0.1-0.1c-0.1,0-0.2-0.1-0.3-0.1
		c-1-0.4-2-0.7-3-1.1c-0.5-0.2-0.9-0.3-1.3-0.5c-3.8-1.5-7.5-3.2-11.2-5c-43.2-21.3-75-62.3-83.7-111.3c0,0,0,0,0,0
		c-1.6-8.8,15.7-17.8,15.7-27c0-13.1-16.5-25.7-13.4-37.8c5.3-21.1,15-40.5,28-57.1c22.1-28.3,53.9-48.6,90.3-56.1
		c10-2,20.4-3.1,31.1-3.1c19,0,37.3,3.4,54.1,9.8c35.5,13.3,64.8,39.3,82.3,72.5c6.9,13.1,12,27.3,14.9,42.3
		C400.6,346.2,401.6,356,401.6,366.2z"/>
	<path class="st3" d="M165.7,419.8c-5.8-4.5-10.9-10.1-15.2-15.7c-3.4-4.5-7.3-9.8-10.5-15.6c-1.3,3.9-2.8,7.1-3.9,9.4
		c8.7,9.3,12.7,21.5,11.1,36.1c-1.2,11.2-2.3,22.5-5.4,33.3c-1.1,3.7-1.4,7.7-1.7,11.6c0.9,2.4,1.8,4.8,2.8,7.1
		c-0.5,1.2-0.9,2.3-1.2,3.6c-0.5,1.8-0.8,3.5-1,5.3c-0.1,1.8-0.1,3.6,0.2,5.4c0.3,1.8,1,3.4,1.9,4.9c-0.6-1.6-1-3.3-1-5
		c0-1.7,0.2-3.4,0.6-5c0.4-1.6,1-3.2,1.7-4.7c0.5-1.1,1.1-2.2,1.7-3.2c0.6-0.3,1.2-0.5,1.9-0.8c0.6-0.3,1.3-0.7,2-1
		c1.8-0.8,4.2-1.5,7.8-1.5c0,0,0,0,0,0c-0.1,0-0.3,0-0.4,0c0.1,0,0.3,0,0.4,0c1-6.4,2.7-12.5,5.3-18.3c1.1-2.3,2.4-4.7,3.9-7.1
		c-1.1-7.7-2.4-19.1-2.4-23.2C164.6,430.2,165.9,425,165.7,419.8z"/>
	<path class="st4" d="M118.9,564.2c11.9,0,19.5-6.4,22.3-9.3c0,0,0,0,0,0c4.1-3.6,5.8-9.7,4.3-17.1c5.2,4.5,11.4,7.3,17.8,7.3
		c10.6,0,19-5.2,22.7-7.4c0.1-0.1,0.2-0.1,0.3-0.2c0.3-0.2,0.6-0.4,0.8-0.5c1.6-0.8,2.4-1.6,2.6-2.3c4.1-4.7,5.3-12.2,2.5-21
		c-0.4-1.4-1-2.9-1.6-4.2c0.5,0.2,0.9,0.3,1.3,0.5c1,0.4,2,0.8,3,1.1c0.1,0,0.2,0.1,0.3,0.1c0,0,0.1,0,0.1,0.1
		c0.8,0.3,1.7,0.6,2.6,0.9c0.1,0,0.1,0,0.2,0.1c0.7,0.3,1.5,0.5,2.2,0.7c0.1,0,0.2,0.1,0.3,0.1c1,0.3,2,0.6,2.9,0.9
		c1.3,0.4,2.7,0.8,4,1.1c0.2,0.1,0.4,0.1,0.5,0.1c1.3,0.3,2.6,0.7,3.9,1c1.3,0.3,2.5,0.6,3.8,0.8c0.4,0.1,0.7,0.2,1.1,0.2
		c1.2,0.3,2.5,0.5,3.7,0.7c1.1,0.2,2.2,0.4,3.3,0.5c0.5,0.1,0.9,0.2,1.4,0.2l0.3,0.1c1.2,0.2,2.4,0.3,3.5,0.5c0.1,0,0.3,0,0.4,0.1h0
		c1.2,0.1,2.5,0.3,3.7,0.4c0.2,0,0.3,0,0.5,0c0.1,0,0.2,0,0.3,0c1.4,0.1,2.7,0.2,4,0.3c0.2,0,0.4,0,0.5,0c1.4,0.1,2.9,0.1,4.3,0.2
		c1.5,0.1,3,0.1,4.6,0.1c27.6,0,53.5-7.3,75.9-20c-10.8-13.8-25.6-23.5-43.3-51.8c-1.8-7.8-25.4-38.6-26.8-48.4
		c1.2-7.2-1.9-15.2-3.6-16.3c0,0,5.3-8.7,4.7-15.5c0.7,3.7,2.2,12.4,2.9,14c0,0,4,29,29.7,40.3c0,0,8.6,4.1,17.1,1.1
		c11,3.5,24.4-2.5,32-11.1c5.6-6.3,9.1-13.5,12.6-21c1.8-3.9,4-8,5.7-12.2c3.6-5.8,7.3-12.3,11-19.7c7.5-1.2,14.1-5.3,18.5-11.1
		c6.3-2.1,11.7-6.4,15.1-11.9c2.8-4.4,4.4-9.6,4.4-15.2c0-12.5-8-23.2-19.3-27.1c-2.9-1-6.1-1.6-9.4-1.6c-8.1,0-15.5,3.4-20.7,8.9
		c0,0,0,0,0,0c0,0,0,0.1-0.1,0.1c-1.3,1.4-1.6,1.7-1.7,1.9c1.9-0.8,4-1.2,6-1.3c2.8-0.1,5.7,0.3,8.4,1.2c5.5,1.7,10.4,5,14.3,9.2
		c1.9,2.2,3.5,4.6,4.7,7.3c1.1,2.7,1.9,5.5,2.1,8.4c0.4,5.8-1.7,11.5-5,15.8c2-5.1,3.1-10.5,2.2-15.6c-0.8-5.1-3.2-9.8-6.7-13.6
		c-3.4-3.9-7.8-6.9-12.5-9c-4.4-1.9-9.4-2.8-14.3-1.8c-11.1,3.9-19.1,14.5-19.1,27c0,10,5.2,18.9,13,24c-7.5,6.2-20.3,15.8-29.7,18
		c0,0-2.7,0.4-5.5,1.4c1.1-8.6-0.2-17.6-3.4-24.9c-3-6.9-8.2-11.8-14.3-14.9c0.1-6.5-0.9-12.9-2.9-17.4
		c-4.9-11.2-15.2-16.1-26.3-18.2c-0.9-5.6-2.8-10.8-5.1-14.4c-4-6.2-10.2-11.2-17.1-14.1c0.4-1.3,1.7-2.7,5.7-0.1l9.5,6.4
		c0,0,11.3,7,15-2l8.9-15.5c0,0,7.7,4,9.4,1c0,0-0.2-5.6,0.4-12.1c0.5-5.5,7.1-14,9.5-19.9c0,0,1.2-2.6,2.3-6.8
		c1.3-4.7,2.6-11.3,2-18.2c-0.3-3.9-1.3-7.8-3.1-11.6c0,0-0.9-3.2-4-7.4c-2.8-4.9-7.1-9.2-11.9-12.3c-14.1-9.2-33-9.5-48.4-3.2
		c-17.5,7.2-30.6,41.7-29.2,63.8c-3.2,1.8-6,3.7-8.1,5.1c-3.7,2.5-7.4,5.4-10.9,8.6c-9.7-0.4-19.5,0.6-28.8,3.3
		c-11.1,3.3-22,10.1-29.8,19.1c-7,1.9-13.8,5.9-19.1,9.9c-10.8,8.2-18.9,19.8-22.6,32.9c-4.9,17.3-2.6,48.1,12.2,63
		c-12.5,12.9-15.6,33.2-11.4,51.7c3.1,14,10.5,26.9,18.2,38.7c3.9,5.9,8.5,11.6,11.5,18c0.6,1.3,1.1,2.7,1.6,4
		c0.3,3.7,0.5,7.5,0.2,11.4c0,0-0.5,4.3-0.6,9.5c0,0.1,0,0.1,0,0.2c0,0,0,0,0,0v0.1h0c-0.3,1.7-0.4,3.6-0.4,5.5c0,2,0.2,3.9,0.5,5.9
		c0.3,2,1,3.9,1.8,5.7c0.8,1.8,2,3.5,3.3,5.1c-1.5-1.4-3-2.9-4.1-4.6c-1.1-1.8-2.1-3.7-2.7-5.7c-0.7-2-1.2-4.1-1.5-6.2
		c-0.3-2.1-0.5-4.2-0.4-6.5c0,0-0.9-0.1-1.6-0.2c-18.8-1.2-24.4,19.1-21.8,30.2C95.5,550.7,106.4,564.2,118.9,564.2"/>
	<path class="st4" d="M163,465.7c-2.6,5.7-4.4,11.9-5.3,18.3c-0.1,0-0.3,0-0.4,0c0.1,0,0.3,0,0.4,0c0,0,0,0,0,0
		c-3.5,0-5.9,0.7-7.8,1.5c-0.8,0.3-1.4,0.7-2,1c-0.7,0.2-1.3,0.5-1.9,0.8c-0.6,1-1.2,2.1-1.7,3.2c-0.7,1.5-1.3,3.1-1.7,4.7
		c-0.4,1.6-0.6,3.3-0.6,5c0,1.7,0.4,3.4,1,5c-0.9-1.5-1.6-3.1-1.9-4.9c-0.3-1.8-0.4-3.6-0.2-5.4c0.1-1.8,0.5-3.6,1-5.3
		c0.3-1.2,0.7-2.4,1.2-3.6c-1-2.3-1.9-4.7-2.8-7.1c0.3-3.9,0.6-7.8,1.7-11.6c3.1-10.8,4.2-22.1,5.4-33.3
		c1.5-14.6-2.4-26.8-11.1-36.1c1.2-2.2,2.6-5.5,3.9-9.4c3.3,5.8,7.1,11.1,10.5,15.6c4.3,5.6,9.4,11.2,15.2,15.7
		c0.2,5.3-1.1,10.4-1.2,15.6c-0.1,4,1.3,15.4,2.4,23.2C165.4,460.9,164.1,463.3,163,465.7z"/>
</g>
</svg>
