<?xml version="1.0" encoding="utf-8"?>
<!-- Generator: Adobe Illustrator 27.5.0, SVG Export Plug-In . SVG Version: 6.00 Build 0)  -->
<svg version="1.1" xmlns="http://www.w3.org/2000/svg" xmlns:xlink="http://www.w3.org/1999/xlink" x="0px" y="0px"
	 viewBox="0 0 800 203.6" style="enable-background:new 0 0 800 203.6;" xml:space="preserve">
<style type="text/css">
	.st0{opacity:0.8;fill:url(#SVGID_1_);}
	.st1{fill:url(#SVGID_00000149354701789973774790000003817751533477834385_);}
	.st2{fill:#FFFFFF;}
	.st3{fill:none;}
	.st4{fill:#000;}
	.st5{fill:#4687c0;}
</style>
<g id="Background">
</g>
<g id="Elements">
	
		<radialGradient id="SVGID_1_" cx="118.5719" cy="179.5988" r="79.2114" gradientTransform="matrix(0.8431 0 0 9.066142e-02 87.7127 174.1404)" gradientUnits="userSpaceOnUse">
		<stop  offset="0" style="stop-color:#797979"/>
		<stop  offset="0.2984" style="stop-color:#B6B6B6"/>
		<stop  offset="0.5793" style="stop-color:#BABABA;stop-opacity:0.5"/>
		<stop  offset="0.9843" style="stop-color:#F2F2F2;stop-opacity:0"/>
	</radialGradient>
	<path class="st0" d="M257.4,190.4c0,5.4-30.9,9.8-69,9.8c-38.1,0-69-4.4-69-9.8c0-5.4,30.9-9.8,69-9.8
		C226.5,180.7,257.4,185,257.4,190.4z"/>
	
		<linearGradient id="SVGID_00000176045644686813655720000018125499266429350074_" gradientUnits="userSpaceOnUse" x1="32.153" y1="96.9516" x2="189.8905" y2="99.7049">
		<stop  offset="0" style="stop-color:#0F4C75"/>
		<stop  offset="1" style="stop-color:#4687c0"/>
	</linearGradient>
	<path style="fill:url(#SVGID_00000176045644686813655720000018125499266429350074_);" d="M158.8,35.3
		c32.7,43.1,29.5,155.2,29.5,155.2S79.5,163.3,46.8,120.2c-23.5-30.9-17.4-75,13.5-98.5S135.3,4.3,158.8,35.3z"/>
	<g>
	</g>
	<path id="XMLID_72_" class="st2" d="M161.8,79c0,19.8-9.8,37.3-24.8,48c-1.6,1.2-3.3,2.2-5.1,3.2c-8.6,4.9-18.4,7.6-29,7.6
		c-0.6,0-1.2,0-1.7,0c-0.5,0-1.1,0-1.6-0.1c-0.1,0-0.1,0-0.2,0c-0.5,0-1-0.1-1.5-0.1c0,0-0.1,0-0.1,0c-0.1,0-0.1,0-0.2,0
		c-0.5,0-0.9-0.1-1.4-0.1h0c-0.1,0-0.1,0-0.2,0c-0.4-0.1-0.9-0.1-1.4-0.2l-0.1,0c-0.2,0-0.4,0-0.5-0.1c-0.4-0.1-0.8-0.1-1.3-0.2
		c-0.5-0.1-1-0.2-1.4-0.3c-0.1,0-0.3,0-0.4-0.1c-0.5-0.1-1-0.2-1.5-0.3c-0.5-0.1-1-0.2-1.5-0.4c-0.1,0-0.1,0-0.2-0.1
		c-0.5-0.1-1-0.3-1.5-0.4c-0.4-0.1-0.8-0.2-1.1-0.3c0,0-0.1,0-0.1,0c-0.3-0.1-0.6-0.2-0.8-0.3c0,0,0,0-0.1,0c-0.3-0.1-0.7-0.2-1-0.3
		c0,0,0,0,0,0c0,0-0.1,0-0.1,0c-0.4-0.1-0.8-0.3-1.2-0.4c-0.2-0.1-0.3-0.1-0.5-0.2c-1.4-0.6-2.9-1.2-4.3-1.9
		c-16.5-8.1-28.6-23.8-31.9-42.5c0,0,0,0,0,0c-0.6-3.4,6-6.8,6-10.3c0-5-6.3-9.8-5.1-14.4c2-8.1,5.7-15.5,10.7-21.8
		c8.4-10.8,20.6-18.5,34.5-21.4c3.8-0.8,7.8-1.2,11.9-1.2c7.3,0,14.2,1.3,20.7,3.7c13.6,5.1,24.7,15,31.4,27.7
		c2.6,5,4.6,10.4,5.7,16.1C161.5,71.3,161.8,75.1,161.8,79z"/>
	<path class="st3" d="M92.2,102.6c-2.8-2.2-5.3-4.9-7.4-7.7c-1.7-2.2-3.5-4.8-5.1-7.6c-0.6,1.9-1.4,3.5-1.9,4.6
		c4.2,4.5,6.2,10.5,5.4,17.6c-0.6,5.5-1.1,11-2.6,16.2c-0.5,1.8-0.7,3.7-0.8,5.6c0.4,1.2,0.9,2.3,1.4,3.5c-0.2,0.6-0.4,1.1-0.6,1.7
		c-0.2,0.9-0.4,1.7-0.5,2.6c-0.1,0.9,0,1.8,0.1,2.6c0.2,0.9,0.5,1.7,0.9,2.4c-0.3-0.8-0.5-1.6-0.5-2.4c0-0.8,0.1-1.6,0.3-2.4
		c0.2-0.8,0.5-1.5,0.8-2.3c0.2-0.5,0.5-1.1,0.8-1.5c0.3-0.1,0.6-0.3,0.9-0.4c0.3-0.2,0.6-0.3,1-0.5c0.9-0.4,2.1-0.8,3.8-0.7
		c0,0,0,0,0,0c-0.1,0-0.1,0-0.2,0c0.1,0,0.1,0,0.2,0c0.5-3.1,1.3-6.1,2.6-8.9c0.5-1.1,1.2-2.3,1.9-3.5c-0.5-3.8-1.2-9.3-1.2-11.3
		C91.7,107.7,92.3,105.2,92.2,102.6z"/>
	<path class="st4" d="M53.9,154.6c4.5,0,7.4-2.4,8.5-3.6c0,0,0,0,0,0c1.6-1.4,2.2-3.7,1.6-6.5c2,1.7,4.3,2.8,6.8,2.8
		c4,0,7.3-2,8.7-2.8c0,0,0.1,0,0.1-0.1c0.1-0.1,0.2-0.1,0.3-0.2c0.6-0.3,0.9-0.6,1-0.9c1.6-1.8,2-4.7,1-8c-0.2-0.6-0.4-1.1-0.6-1.6
		c0.2,0.1,0.3,0.1,0.5,0.2c0.4,0.2,0.8,0.3,1.2,0.4c0,0,0.1,0,0.1,0c0,0,0,0,0,0c0.3,0.1,0.7,0.2,1,0.3c0,0,0,0,0.1,0
		c0.3,0.1,0.6,0.2,0.8,0.3c0,0,0.1,0,0.1,0c0.4,0.1,0.7,0.2,1.1,0.3c0.5,0.2,1,0.3,1.5,0.4c0.1,0,0.1,0,0.2,0.1
		c0.5,0.1,1,0.3,1.5,0.4c0.5,0.1,1,0.2,1.5,0.3c0.1,0,0.3,0.1,0.4,0.1c0.5,0.1,1,0.2,1.4,0.3c0.4,0.1,0.8,0.1,1.3,0.2
		c0.2,0,0.4,0.1,0.5,0.1l0.1,0c0.4,0.1,0.9,0.1,1.4,0.2c0.1,0,0.1,0,0.2,0h0c0.5,0.1,0.9,0.1,1.4,0.1c0.1,0,0.1,0,0.2,0
		c0,0,0.1,0,0.1,0c0.5,0,1,0.1,1.5,0.1c0.1,0,0.1,0,0.2,0c0.5,0,1.1,0.1,1.6,0.1c0.6,0,1.2,0,1.7,0c10.5,0,20.4-2.8,29-7.6
		c-4.1-5.3-9.8-9-16.5-19.8c-0.7-3-9.7-14.7-10.2-18.5c0.5-2.8-0.7-5.8-1.4-6.2c0,0,2-3.3,1.8-5.9c0.2,1.4,0.8,4.7,1.1,5.4
		c0,0,1.5,11.1,11.3,15.4c0,0,3.3,1.6,6.5,0.4c4.2,1.3,9.3-0.9,12.2-4.2c2.1-2.4,3.5-5.1,4.8-8c0.7-1.5,1.5-3.1,2.2-4.7
		c1.4-2.2,2.8-4.7,4.2-7.5c2.9-0.4,5.4-2,7.1-4.2c2.4-0.8,4.4-2.4,5.8-4.6c1.1-1.7,1.7-3.7,1.7-5.8c0-4.8-3.1-8.8-7.4-10.3
		c-1.1-0.4-2.3-0.6-3.6-0.6c-3.1,0-5.9,1.3-7.9,3.4c0,0,0,0,0,0c0,0,0,0,0,0c-0.5,0.5-0.6,0.6-0.7,0.7c0.7-0.3,1.5-0.4,2.3-0.5
		c1.1,0,2.2,0.1,3.2,0.5c2.1,0.7,4,1.9,5.5,3.5c0.7,0.8,1.3,1.8,1.8,2.8c0.4,1,0.7,2.1,0.8,3.2c0.2,2.2-0.7,4.4-1.9,6.1
		c0.8-2,1.2-4,0.9-5.9c-0.3-1.9-1.2-3.7-2.6-5.2c-1.3-1.5-3-2.6-4.8-3.4c-1.7-0.7-3.6-1.1-5.5-0.7c-4.2,1.5-7.3,5.5-7.3,10.3
		c0,3.8,2,7.2,5,9.2c-2.9,2.4-7.7,6-11.3,6.9c0,0-1,0.2-2.1,0.5c0.4-3.3-0.1-6.7-1.3-9.5c-1.1-2.6-3.1-4.5-5.5-5.7
		c0.1-2.5-0.4-4.9-1.1-6.6c-1.9-4.3-5.8-6.2-10-7c-0.4-2.1-1.1-4.1-1.9-5.5c-1.5-2.4-3.9-4.3-6.5-5.4c0.2-0.5,0.6-1,2.2-0.1l3.6,2.4
		c0,0,4.3,2.7,5.7-0.8l3.4-5.9c0,0,3,1.5,3.6,0.4c0,0-0.1-2.1,0.2-4.6c0.2-2.1,2.7-5.3,3.6-7.6c0,0,0.5-1,0.9-2.6
		c0.5-1.8,1-4.3,0.8-7c-0.1-1.5-0.5-3-1.2-4.4c0,0-0.3-1.2-1.5-2.8c-1.1-1.9-2.7-3.5-4.5-4.7c-5.4-3.5-12.6-3.6-18.5-1.2
		C92,6.5,87,19.6,87.5,28.1c-1.2,0.7-2.3,1.4-3.1,2c-1.4,0.9-2.8,2.1-4.2,3.3c-3.7-0.2-7.4,0.2-11,1.3c-4.2,1.3-8.4,3.8-11.4,7.3
		c-2.7,0.7-5.3,2.2-7.3,3.8c-4.1,3.1-7.2,7.5-8.6,12.6c-1.9,6.6-1,18.3,4.6,24.1c-4.8,4.9-5.9,12.7-4.4,19.8c1.2,5.3,4,10.3,7,14.8
		c1.5,2.3,3.2,4.4,4.4,6.9c0.2,0.5,0.4,1,0.6,1.5c0.1,1.4,0.2,2.9,0.1,4.4c0,0-0.2,1.7-0.2,3.6c0,0,0,0,0,0.1c0,0,0,0,0,0v0h0
		c-0.1,0.7-0.2,1.4-0.2,2.1c0,0.8,0.1,1.5,0.2,2.2c0.1,0.8,0.4,1.5,0.7,2.2c0.3,0.7,0.8,1.3,1.3,1.9c-0.6-0.5-1.1-1.1-1.6-1.8
		c-0.4-0.7-0.8-1.4-1-2.2c-0.3-0.8-0.4-1.6-0.6-2.4c-0.1-0.8-0.2-1.6-0.1-2.5c0,0-0.3-0.1-0.6-0.1c-7.2-0.4-9.3,7.3-8.3,11.5
		C45,149.4,49.2,154.6,53.9,154.6"/>
	<path class="st4" d="M90.9,125c-1.3,2.8-2.1,5.8-2.6,8.9c-0.1,0-0.1,0-0.2,0c0.1,0,0.1,0,0.2,0c0,0,0,0,0,0c-1.7,0-2.9,0.3-3.8,0.7
		c-0.4,0.2-0.7,0.3-1,0.5c-0.3,0.1-0.6,0.2-0.9,0.4c-0.3,0.5-0.6,1-0.8,1.5c-0.3,0.7-0.6,1.5-0.8,2.3c-0.2,0.8-0.3,1.6-0.3,2.4
		c0,0.8,0.2,1.6,0.5,2.4c-0.4-0.7-0.8-1.5-0.9-2.4c-0.1-0.9-0.2-1.7-0.1-2.6c0.1-0.9,0.2-1.7,0.5-2.6c0.2-0.6,0.4-1.2,0.6-1.7
		c-0.5-1.1-0.9-2.3-1.4-3.5c0.1-1.9,0.3-3.8,0.8-5.6c1.5-5.3,2.1-10.8,2.6-16.2c0.8-7.1-1.2-13-5.4-17.6c0.6-1.1,1.3-2.7,1.9-4.6
		c1.6,2.8,3.5,5.4,5.1,7.6c2.1,2.7,4.6,5.4,7.4,7.7c0.1,2.6-0.5,5.1-0.6,7.6c0,2,0.6,7.5,1.2,11.3C92.1,122.7,91.4,123.8,90.9,125z"
		/>
	<g>
		<path class="st5" d="M229.3,113.5c2.2,3,5.3,4.4,9.5,4.4s8.1-1.5,11.9-4.5l5.2,7.1c-3,2.3-6.2,4.1-9.6,5.4c-3.4,1.3-6.8,2-10.3,2
			c-7,0-12.2-2.5-15.8-7.4c-3.6-4.9-4.5-10.9-2.6-17.8c1.9-6.9,5.9-12.8,12.1-17.8c6.2-4.9,12.8-7.4,19.8-7.4c3.5,0,6.5,0.7,9.2,2
			c2.7,1.3,4.9,3.1,6.7,5.4l-9.1,7.2c-2.2-3-5.4-4.5-9.5-4.5c-4.2,0-8.1,1.5-11.9,4.5c-3.8,3-6.2,6.5-7.3,10.7
			C226.6,107,227.1,110.5,229.3,113.5z"/>
		<path class="st5" d="M312.6,85c3.6,4.9,4.5,10.9,2.7,17.8c-1.9,7-5.9,12.9-12.2,17.8c-6.3,4.9-12.8,7.4-19.8,7.4
			c-7,0-12.2-2.5-15.8-7.4c-3.6-4.9-4.5-10.9-2.6-17.8c1.9-6.9,5.9-12.8,12.1-17.8c6.2-4.9,12.8-7.4,19.8-7.4
			C303.7,77.6,309,80.1,312.6,85z M297.9,113.5c3.8-3,6.2-6.5,7.3-10.7c1.1-4.1,0.6-7.7-1.6-10.7c-2.2-3-5.3-4.5-9.5-4.5
			c-4.2,0-8.1,1.5-11.9,4.5c-3.8,3-6.2,6.5-7.3,10.7c-1.1,4.2-0.6,7.7,1.6,10.7c2.2,3,5.3,4.4,9.5,4.4
			C290.2,117.9,294.1,116.5,297.9,113.5z"/>
		<path class="st5" d="M349.3,80l8.7,48h-10.7l-3.3-17.6h0.1l-1.6-8.8l-6.3,8.8l1.9,10.1h-9.1l-0.2,0.4l-5.2,7.2h-10.7l34.5-48
			l1.6-2.4L349.3,80z"/>
		<path class="st5" d="M380.6,113.5c2.2,3,5.3,4.4,9.5,4.4s8.1-1.5,11.9-4.5l5.2,7.1c-3,2.3-6.2,4.1-9.6,5.4c-3.4,1.3-6.8,2-10.3,2
			c-7,0-12.2-2.5-15.8-7.4c-3.6-4.9-4.5-10.9-2.6-17.8c1.9-6.9,5.9-12.8,12.1-17.8c6.2-4.9,12.8-7.4,19.8-7.4c3.5,0,6.5,0.7,9.2,2
			c2.7,1.3,4.9,3.1,6.7,5.4l-9.1,7.2c-2.2-3-5.4-4.5-9.5-4.5c-4.2,0-8.1,1.5-11.9,4.5c-3.8,3-6.2,6.5-7.3,10.7
			C378,107,378.5,110.5,380.6,113.5z"/>
		<path class="st5" d="M448.2,77.6h10.1L444.8,128h-10.1l5.4-20.2H425l-5.4,20.2h-10.1L423,77.6h10.1l-5.4,20.2h15.1L448.2,77.6z"/>
		<path class="st5" d="M497.4,117.9h20.2l-2.7,10.1h-30.2l13.5-50.4h10.1L497.4,117.9z"/>
		<path class="st5" d="M573.6,85c3.6,4.9,4.5,10.9,2.7,17.8c-1.9,7-5.9,12.9-12.2,17.8c-6.3,4.9-12.8,7.4-19.8,7.4
			c-7,0-12.2-2.5-15.8-7.4c-3.6-4.9-4.5-10.9-2.6-17.8c1.9-6.9,5.9-12.8,12.1-17.8c6.2-4.9,12.8-7.4,19.8-7.4
			C564.7,77.6,569.9,80.1,573.6,85z M558.8,113.5c3.8-3,6.2-6.5,7.3-10.7c1.1-4.1,0.6-7.7-1.6-10.7c-2.2-3-5.3-4.5-9.5-4.5
			c-4.2,0-8.1,1.5-11.9,4.5c-3.8,3-6.2,6.5-7.3,10.7c-1.1,4.2-0.6,7.7,1.6,10.7s5.3,4.4,9.5,4.4C551.1,117.9,555,116.5,558.8,113.5z
			"/>
		<path class="st5" d="M592,113.5c2.2,3,5.3,4.4,9.5,4.4s8.1-1.5,11.9-4.5l5.2,7.1c-3,2.3-6.2,4.1-9.6,5.4c-3.4,1.3-6.8,2-10.3,2
			c-7,0-12.2-2.5-15.8-7.4c-3.6-4.9-4.5-10.9-2.6-17.8c1.9-6.9,5.9-12.8,12.1-17.8c6.2-4.9,12.8-7.4,19.8-7.4c3.5,0,6.5,0.7,9.2,2
			c2.7,1.3,4.9,3.1,6.7,5.4l-9.1,7.2c-2.2-3-5.4-4.5-9.5-4.5c-4.2,0-8.1,1.5-11.9,4.5c-3.8,3-6.2,6.5-7.3,10.7
			C589.3,107,589.9,110.5,592,113.5z"/>
		<path class="st5" d="M657.5,80l8.7,48h-10.7l-3.3-17.6h0.1l-1.6-8.8l-6.3,8.8l1.9,10.1h-9.1l-0.2,0.4l-5.2,7.2h-10.7l34.5-48
			l1.6-2.4L657.5,80z"/>
		<path class="st5" d="M687.9,77.6h35.4l-6.8,10.1h-12.6L693.1,128H683l10.8-40.3h-12.6L687.9,77.6z"/>
		<path class="st5" d="M729.4,107.8l-2.7,10.1h20.2l-6.7,10.1H714l13.5-50.4h30.2L751,87.7h-16.1l-2.7,10.1h15.1l-6.7,10.1H729.4z"
			/>
	</g>
</g>
</svg>
